<svg xmlns="http://www.w3.org/2000/svg" viewBox="0 0 24 24" role="img"><path fill="#ffffff" d="M6.915 4.03c-1.968 0-3.683 1.28-4.871 3.113C.704 9.208 0 11.883 0 14.449c0 .706.07 1.369.21 1.973a6.624 6.624 0 0 0 .265.86 5.297 5.297 0 0 0 .371.761c.696 1.159 1.818 1.927 3.102 1.927 1.497 0 2.426-1.128 3.311-2.62 1.03-1.732 1.79-3.465 2.737-3.465.946 0 1.707 1.733 2.737 3.465.885 1.492 1.814 2.62 3.311 2.62 1.284 0 2.406-.768 3.102-1.927a5.3 5.3 0 0 0 .372-.76c.197-.478.451-1.075.541-2.208.18-2.234-.934-4.813-1.892-6.68-.46-.937-.964-1.74-1.527-2.33C20.294 5.42 18.066 4.03 15.478 4.03c-1.875 0-3.45 1.098-4.563 2.23-1.114-1.132-2.688-2.23-4.563-2.23z"/></svg>
