<svg xmlns="http://www.w3.org/2000/svg" viewBox="0 0 24 24" role="img"><path fill="#ffffff" d="M8.948 8.798v-1.43a6.7 6.7 0 0 1 .748-.04 7.42 7.42 0 0 1 5.644 2.564 6.92 6.92 0 0 1 1.398 2.088 8.01 8.01 0 0 1 .455 2.66c0 .906-.14 1.77-.418 2.592a6.7 6.7 0 0 1-1.203 2.164 5.49 5.49 0 0 1-1.868 1.445 5.7 5.7 0 0 1-2.408.52 6.3 6.3 0 0 1-.748-.04v-1.432a5.2 5.2 0 0 0 .748.056 4.6 4.6 0 0 0 1.9-.39 4.49 4.49 0 0 0 1.51-1.09 4.87 4.87 0 0 0 .98-1.62 5.8 5.8 0 0 0 .35-2.02 5.5 5.5 0 0 0-.35-1.98 4.8 4.8 0 0 0-.98-1.62 4.5 4.5 0 0 0-1.51-1.09 4.6 4.6 0 0 0-1.9-.39 6.3 6.3 0 0 0-.748.056zM.032 8.798h1.87l2.13 5.11 2.13-5.11h1.8l-3.2 7.402H3.23zm15.23 0h1.8l2.13 5.11 2.13-5.11h1.87l-3.2 7.402h-1.83z"/></svg>
